# xmcd CD database file generated by OrangeCD 5.2
#
# Track frame offsets:
#	150
#	18515
#	38802
#	61152
#	81769
#	100191
#	122101
#	139267
#	158365
#	175962
#	194647
#	209151
#	230808
#	254303
#	274320
#	291816
#	315358
#
# Disc length: 4278 seconds
#
# Revision: 0
# Processed by: cddbd v1.5.2PL0 Copyright (c) Steve Scherf et al.
# Submitted via: OrangeCD 5.2
#
DISCID=f910b411
DTITLE=Brad Paisley - 5th Gear
DYEAR=2007
DGENRE=Country
TTITLE0=All I wanted was a car
TTITLE1=Ticks
TTITLE2=Online
TTITLE3=Letter to me
TTITLE4=I'm still a guy
TTITLE5=Some mistakes
TTITLE6=It did
TTITLE7=Mr. Policeman
TTITLE8=If love was a plane
TTITLE9=Oh love (with Carrie Underwood)
TTITLE10=Better than this
TTITLE11=With you , without you
TTITLE12=Previously (feat Kung Pao Buckaroos)
TTITLE13=Bigger fish to fry (feat Kung Pao Buckaroos)
TTITLE14=When we all get to heaven
TTITLE15=Throttleneck (instrumental)
TTITLE16=(Untitled - Comedy with the Kung Pao Buckaroos)
EXTD=
EXTT0=
EXTT1=
EXTT2=
EXTT3=
EXTT4=
EXTT5=
EXTT6=
EXTT7=
EXTT8=
EXTT9=
EXTT10=
EXTT11=
EXTT12=
EXTT13=
EXTT14=
EXTT15=
EXTT16=
PLAYORDER=
